# xmcd CD database file
#
# Track frame offsets:
#	150
#	40047
#	93494
#	128668
#	174115
#	207953
#	271469
#
# Disc length: 4307 seconds
#
# Revision: 1
# Processed by: cddbd v1.5.2PL0 Copyright (c) Steve Scherf et al.
# Submitted via: CDex 1.70beta2
#
DISCID=5510d107
DTITLE=Lionel Hapton - A La French
DYEAR=1955
DGENRE=Jazz
TTITLE0=Voice Of The North
TTITLE1=A La French
TTITLE2=Crazy Rhythm
TTITLE3=Zebu
TTITLE4=All The Things You Are
TTITLE5=I Cover The Waterfront
TTITLE6=Night And Day
EXTD=YEAR: 1955
EXTT0=
EXTT1=
EXTT2=
EXTT3=
EXTT4=
EXTT5=
EXTT6=
PLAYORDER=
